<svg width="614" height="569" viewBox="0 0 614 569" fill="none" xmlns="http://www.w3.org/2000/svg">
<path d="M467.412 240.141C467.412 362.819 365.856 462.305 240.536 462.305C115.216 462.305 13.6598 362.819 13.6598 240.141C13.6598 117.463 115.216 17.9769 240.536 17.9769C365.856 17.9769 467.412 117.463 467.412 240.141Z" fill="#F39852" fill-opacity="0.46" stroke="#F29048" stroke-width="2"/>
<path d="M437.345 251.094C437.345 359.605 352.036 447.519 246.866 447.519C141.696 447.519 56.3866 359.605 56.3866 251.094C56.3866 142.582 141.696 54.6689 246.866 54.6689C352.036 54.6689 437.345 142.582 437.345 251.094Z" fill="#F39852" stroke="#F29048" stroke-width="2"/>
<path d="M581.35 298.191C581.35 414.568 490.018 508.855 377.42 508.855C264.823 508.855 173.49 414.568 173.49 298.191C173.49 181.814 264.823 87.5274 377.42 87.5274C490.018 87.5274 581.35 181.814 581.35 298.191Z" fill="#F39852" fill-opacity="0.1" stroke="#F29048" stroke-width="2"/>
<path d="M613 211.664C613 328.041 521.667 422.327 409.07 422.327C296.472 422.327 205.139 328.041 205.139 211.664C205.139 95.2866 296.472 1 409.07 1C521.667 1 613 95.2866 613 211.664Z" fill="#F39852" fill-opacity="0.37" stroke="#F29048" stroke-width="2"/>
<path d="M178.347 509.581C178.347 541.806 151.085 568 117.367 568C83.6482 568 56.3866 541.806 56.3866 509.581C56.3866 477.356 83.6482 451.162 117.367 451.162C151.085 451.162 178.347 477.356 178.347 509.581Z" fill="#F9CB6E" fill-opacity="0.5" stroke="#F29048" stroke-width="2"/>
<path d="M467.412 296.274C467.412 429.743 362.969 537.88 234.206 537.88C105.443 537.88 1 429.743 1 296.274C1 162.806 105.443 54.6689 234.206 54.6689C362.969 54.6689 467.412 162.806 467.412 296.274Z" fill="#F39852" fill-opacity="0.31" stroke="#F29048" stroke-width="2"/>
</svg>
