<svg width="614" height="650" viewBox="0 0 614 650" fill="none" xmlns="http://www.w3.org/2000/svg">
<path d="M467.412 351.141C467.412 473.819 365.856 573.305 240.536 573.305C115.216 573.305 13.6598 473.819 13.6598 351.141C13.6598 228.463 115.216 128.977 240.536 128.977C365.856 128.977 467.412 228.463 467.412 351.141Z" fill="#F39852" fill-opacity="0.46" stroke="#F29048" stroke-width="2"/>
<path d="M437.345 361.094C437.345 469.605 352.036 557.519 246.866 557.519C141.696 557.519 56.3866 469.605 56.3866 361.094C56.3866 252.582 141.696 164.669 246.866 164.669C352.036 164.669 437.345 252.582 437.345 361.094Z" fill="#F39852" stroke="#F29048" stroke-width="2"/>
<path d="M581.35 409.191C581.35 525.568 490.018 619.855 377.42 619.855C264.823 619.855 173.49 525.568 173.49 409.191C173.49 292.814 264.823 198.527 377.42 198.527C490.018 198.527 581.35 292.814 581.35 409.191Z" fill="#F39852" fill-opacity="0.1" stroke="#F29048" stroke-width="2"/>
<path d="M613 322.664C613 439.041 521.667 533.327 409.07 533.327C296.472 533.327 205.139 439.041 205.139 322.664C205.139 206.287 296.472 112 409.07 112C521.667 112 613 206.287 613 322.664Z" fill="#F39852" fill-opacity="0.37" stroke="#F29048" stroke-width="2"/>
<path d="M483 102.5C483 158.513 435.364 204 376.5 204C317.636 204 270 158.513 270 102.5C270 46.4874 317.636 1 376.5 1C435.364 1 483 46.4874 483 102.5Z" fill="#F29152" fill-opacity="0.8" stroke="#F29048" stroke-width="2"/>
<path d="M467.412 407.274C467.412 540.743 362.969 648.88 234.206 648.88C105.443 648.88 1 540.743 1 407.274C1 273.806 105.443 165.669 234.206 165.669C362.969 165.669 467.412 273.806 467.412 407.274Z" fill="#F39852" fill-opacity="0.31" stroke="#F29048" stroke-width="2"/>
</svg>
